<svg width="27" height="21" viewBox="0 0 27 21" fill="none" xmlns="http://www.w3.org/2000/svg">
<path fill-rule="evenodd" clip-rule="evenodd" d="M10.7729 0.532995C10.2755 0.177663 9.71267 0 9.08436 0C8.08952 0.0177666 7.0947 0.53299 6.09987 1.54569C2.03327 5.64977 0 9.84262 0 14.1244C0 15.9188 0.523589 17.4733 1.57078 18.7881C2.7576 20.2627 4.27601 21 6.12605 21C7.78411 21 9.16289 20.4182 10.2624 19.2544C11.362 18.0907 11.9118 16.6383 11.9118 14.8972C11.9118 13.7779 11.6849 12.8096 11.2311 11.9924C10.7773 11.1751 9.9832 10.3223 8.84874 9.43401C8.27278 8.97208 7.98481 8.45686 7.98481 7.88832C7.98481 7.08883 8.20733 6.30267 8.65239 5.52982C9.09745 4.75698 9.88719 3.79315 11.0217 2.63832C11.3533 2.28299 11.5191 1.97208 11.5191 1.70558C11.5191 1.27919 11.2704 0.888327 10.7729 0.532995ZM25.8612 0.532995C25.3638 0.177663 24.8009 0 24.1726 0C23.1778 0.0177666 22.1829 0.53299 21.1881 1.54569C17.1215 5.64977 15.0882 9.84262 15.0882 14.1244C15.0882 15.9188 15.6118 17.4733 16.659 18.7881C17.8458 20.2627 19.3642 21 21.2143 21C22.8723 21 24.2511 20.4182 25.3507 19.2544C26.4502 18.0907 27 16.6383 27 14.8972C27 13.7779 26.7731 12.8096 26.3193 11.9924C25.8655 11.1751 25.0714 10.3223 23.937 9.43401C23.361 8.97208 23.073 8.45686 23.073 7.88832C23.073 7.08883 23.2956 6.30267 23.7406 5.52982C24.1857 4.75698 24.9754 3.79315 26.1099 2.63832C26.4415 2.28299 26.6073 1.97208 26.6073 1.70558C26.6073 1.27919 26.3586 0.888327 25.8612 0.532995Z" fill="#6E707A"/>
</svg>
