<svg width="24" height="19" viewBox="0 0 24 19" fill="none" xmlns="http://www.w3.org/2000/svg">
<path d="M0.50114 1.46044C3.79505 4.25002 9.57483 9.15773 11.2736 10.688C11.5016 10.8945 11.7462 10.9995 12.0001 10.9995C12.2535 10.9995 12.4977 10.8955 12.7253 10.6899C14.4255 9.1582 20.2052 4.25002 23.4992 1.46044C23.7043 1.28709 23.7355 0.982406 23.5695 0.770484C23.1857 0.280781 22.6134 0 22.0001 0H2.00016C1.38689 0 0.814593 0.280781 0.430828 0.770531C0.264796 0.982406 0.296062 1.28709 0.50114 1.46044Z" fill="white"/>
<path d="M23.71 2.97337C23.5327 2.89087 23.3242 2.91965 23.1768 3.04565C19.5239 6.14231 14.8618 10.1116 13.395 11.4333C12.5717 12.1765 11.4292 12.1765 10.604 11.4323C9.0405 10.0237 3.80512 5.57297 0.823219 3.04561C0.674766 2.91961 0.465797 2.89181 0.290016 2.97333C0.113297 3.0554 0 3.23217 0 3.42698V16.0012C0 17.1043 0.896953 18.0012 2.00002 18.0012H22C23.103 18.0012 24 17.1043 24 16.0012V3.42698C24 3.23217 23.8867 3.05493 23.71 2.97337Z" fill="white"/>
</svg>
