<svg width="24" height="22" viewBox="0 0 24 22" fill="none" xmlns="http://www.w3.org/2000/svg">
<path d="M22 7.00102H21.8203L18.3439 0.994033C18.0769 0.533767 17.6458 0.204798 17.1301 0.0682043C16.6168 -0.0674988 16.0799 0.00375117 15.6206 0.268267L0.994019 8.69133C0.0448 9.23785 -0.281919 10.452 0.265206 11.3973L2.99999 16.1224V20.001C2.99999 21.104 3.89694 22.001 5 22.001H22C23.103 22.001 24 21.1041 24 20.001V9.00103C24 7.89797 23.103 7.00102 22 7.00102ZM2.99999 14.1246L1.20782 11.028L2.99999 11.2693V14.1246ZM2.99999 9.00103V10.2601L1.10764 10.0053C1.19014 9.82285 1.31207 9.65644 1.49853 9.54895L3.03397 8.66475C3.01527 8.77458 2.99999 8.88581 2.99999 9.00103ZM16.0561 1.16588L13.9863 7.00102H5.92307L16.0561 1.16588ZM11 15.501C11 15.7774 10.7764 16.001 10.5 16.001H6.5C6.22363 16.001 5.99999 15.7774 5.99999 15.501C5.99999 15.2246 6.22363 15.001 6.5 15.001H10.5C10.7764 15.001 11 15.2246 11 15.501ZM14.5 19.001H6.5C6.22363 19.001 5.99999 18.7774 5.99999 18.501C5.99999 18.2246 6.22363 18.001 6.5 18.001H14.5C14.7764 18.001 15 18.2246 15 18.501C15 18.7774 14.7763 19.001 14.5 19.001ZM17.1227 1.1498C17.263 1.23483 17.3884 1.34128 17.473 1.48725L20.6641 7.00097H15.0471L17.1227 1.1498ZM21 15.501C21 15.7774 20.7763 16.001 20.5 16.001H16.5C16.2236 16.001 16 15.7774 16 15.501V10.501C16 10.2247 16.2236 10.001 16.5 10.001H20.5C20.7763 10.001 21 10.2247 21 10.501V15.501Z" fill="#6E707A"/>
</svg>
