<svg width="37" height="44" viewBox="0 0 37 44" fill="none" xmlns="http://www.w3.org/2000/svg">
<path fill-rule="evenodd" clip-rule="evenodd" d="M20.5891 6.47826C20.5891 8.4953 19.2235 10.1304 17.5389 10.1304C15.8544 10.1304 14.4888 8.4953 14.4888 6.47826V4.65217C14.4888 2.63513 15.8544 1 17.5389 1C19.2235 1 20.5891 2.63513 20.5891 4.65217V6.47826Z" stroke="#2E2F35" stroke-width="1.5"/>
<path d="M17.5386 30.2202L21.3513 22.0028V19.2637" stroke="#2E2F35" stroke-width="1.5"/>
<path d="M20.5888 32.9552V32.0421L24.4015 23.8247V17.4334C24.4015 15.4164 23.0359 13.7812 21.3514 13.7812H13.7259C12.0414 13.7812 10.6758 15.4164 10.6758 17.4334V23.8247L14.4885 32.0421V32.9552" stroke="#2E2F35" stroke-width="1.5"/>
<path d="M17.5383 30.2202L13.7256 22.0028V19.2637" stroke="#2E2F35" stroke-width="1.5"/>
<path d="M0 39.3463H26.689C27.5312 39.3463 28.214 38.5287 28.214 37.5202V34.7811C28.214 32.764 26.8484 31.1289 25.1639 31.1289H21.3512" stroke="#2E2F35" stroke-width="1.5"/>
<path d="M24.4024 35.6953H11.4391C10.5969 35.6953 9.91406 36.5129 9.91406 37.5214V39.3475" stroke="#2E2F35" stroke-width="1.5"/>
<path d="M13.7257 31.1289H11.5296C10.4762 31.1306 9.4468 31.5055 8.57097 32.2063L7.62542 32.955H0" stroke="#2E2F35" stroke-width="1.5"/>
<path d="M28.2137 38.4333H32.7889C34.4735 38.4333 35.8391 36.7981 35.8391 34.7811C35.8391 32.764 34.4735 31.1289 32.7889 31.1289C32.0519 31.1287 31.3406 31.4538 30.7911 32.0419C30.2331 32.6312 29.5144 32.9559 28.7704 32.955H28.0078" stroke="#2E2F35" stroke-width="1.5"/>
<path d="M0 43H36.602" stroke="#2E2F35" stroke-width="1.5"/>
<path d="M17.5386 32.9569V29.3047" stroke="#2E2F35" stroke-width="1.5"/>
</svg>
