<svg width="23" height="24" viewBox="0 0 23 24" fill="none" xmlns="http://www.w3.org/2000/svg">
<path d="M6.29216 24C6.25273 24 6.21331 23.9911 6.17757 23.9733C6.11677 23.9434 6.07108 23.8908 6.05118 23.8278L0.0110262 4.83564C-0.0103445 4.76804 -0.000396078 4.69475 0.0386606 4.63462C0.0777173 4.5745 0.141829 4.53394 0.214047 4.52326C5.20741 3.78645 10.35 2.83474 13.5438 0.0625141C13.6473 -0.0274979 13.8069 -0.019315 13.8997 0.0806588C13.993 0.180633 13.9845 0.334685 13.8809 0.424341C10.6462 3.2325 5.55634 4.21907 0.578822 4.96194L6.45723 23.445C7.36364 23.1497 8.32753 22.8565 9.26231 22.5719C13.4104 21.3092 17.6997 20.0035 19.5556 17.8966C19.6459 17.7942 19.805 17.7817 19.9112 17.8689C20.0173 17.956 20.0302 18.1097 19.9399 18.2122C17.9904 20.4262 13.6304 21.7533 9.41411 23.0366C8.35 23.3603 7.34521 23.6663 6.37432 23.9868C6.34743 23.9954 6.31979 24 6.29216 24Z" fill="black"/>
<path d="M4.914 9C4.81275 9 4.7191 8.93584 4.68799 8.8357L4.01033 6.6682C3.99201 6.60914 3.99823 6.54566 4.02761 6.49134C4.05698 6.43703 4.10709 6.39629 4.16722 6.37796L12.0165 4.01018C12.1416 3.97284 12.2736 4.04141 12.312 4.16396L12.9897 6.33145C13.008 6.39052 13.0018 6.454 12.9724 6.50831C12.943 6.56263 12.8929 6.60337 12.8328 6.6217L4.98346 8.98948C4.96031 8.99661 4.93681 9 4.914 9ZM4.5318 6.75409L5.07054 8.47722L12.4675 6.24591L11.9288 4.52277L4.5318 6.75409Z" fill="black"/>
<path d="M5.28097 16C5.16067 16 5.04941 15.952 5.01246 15.8772C4.96689 15.7855 5.05023 15.6883 5.19845 15.6602L8.63651 15.0076C8.78513 14.9797 8.94197 15.031 8.98754 15.1226C9.03311 15.2142 8.94977 15.3114 8.80155 15.3396L5.36349 15.9921C5.33599 15.9977 5.30848 16 5.28097 16Z" fill="black"/>
<path d="M6.28097 18C6.16067 18 6.04941 17.952 6.01246 17.8772C5.96689 17.7856 6.05023 17.6884 6.19845 17.6602L9.63651 17.0077C9.78513 16.9795 9.94197 17.0311 9.98754 17.1227C10.0331 17.2143 9.94977 17.3115 9.80155 17.3397L6.36349 17.9921C6.33599 17.9975 6.30807 18 6.28097 18Z" fill="black"/>
<path d="M6.28097 19C6.16068 19 6.04941 18.952 6.01246 18.8772C5.96689 18.7855 6.05023 18.6883 6.19845 18.6602L9.63651 18.0076C9.78513 17.9797 9.94197 18.031 9.98754 18.1226C10.0331 18.2142 9.94977 18.3114 9.80155 18.3396L6.36349 18.9921C6.33599 18.9975 6.30807 19 6.28097 19Z" fill="black"/>
<path d="M7.28097 21C7.16067 21 7.04941 20.952 7.01246 20.8772C6.96689 20.7855 7.05023 20.6883 7.19845 20.6602L10.6365 20.0076C10.7851 19.9797 10.942 20.031 10.9875 20.1226C11.0331 20.2142 10.9498 20.3114 10.8016 20.3396L7.36349 20.9921C7.3364 20.9977 7.30848 21 7.28097 21Z" fill="black"/>
<path d="M18.7684 18C18.6711 18 18.5805 17.936 18.5487 17.8348L13.0115 0.313917C12.9719 0.188272 13.0378 0.0528286 13.1596 0.0118805C13.2806 -0.0290676 13.4117 0.0391792 13.4513 0.165173L18.9885 17.6861C19.0281 17.8117 18.9622 17.9472 18.8405 17.9881C18.8168 17.9961 18.7924 18 18.7684 18Z" fill="black"/>
<path d="M6.25611 24C6.14763 24 6.04702 23.9367 6.01223 23.8371C5.96921 23.7139 6.04327 23.5822 6.17793 23.5428L21.6661 19.0113C21.8007 18.9716 21.9448 19.0397 21.9878 19.1629C22.0308 19.2861 21.9567 19.4179 21.8221 19.4572L6.33428 23.9887C6.30847 23.9962 6.28192 24 6.25611 24Z" fill="black"/>
<path d="M21.746 20C21.6395 20 21.5401 19.9342 21.5048 19.83L15.341 1.59314L14.3644 2.05212C14.2382 2.11143 14.0864 2.05971 14.0252 1.93674C13.9644 1.81377 14.0174 1.66584 14.1436 1.60616L15.3811 1.02457C15.4472 0.993467 15.5232 0.99202 15.5908 1.01951C15.6579 1.04736 15.7099 1.10233 15.7325 1.16997L21.9872 19.6745C22.031 19.8043 21.9586 19.9443 21.8254 19.987C21.7991 19.996 21.7724 20 21.746 20Z" fill="black"/>
<path d="M22.7493 21C22.6445 21 22.5467 20.9342 22.5115 20.8298L16.0384 1.59675L15.3604 1.92406C15.2359 1.98407 15.0861 1.93279 15.0253 1.80914C14.9648 1.68549 15.0165 1.53674 15.141 1.47637L16.0758 1.02505C16.1406 0.993773 16.2161 0.991591 16.2824 1.01959C16.349 1.04723 16.4 1.10215 16.423 1.17016L22.987 20.672C23.0309 20.8025 22.9599 20.9433 22.8288 20.9869C22.8024 20.996 22.7756 21 22.7493 21Z" fill="black"/>
<path d="M6.24771 24C6.13504 24 6.03287 23.9282 6.00642 23.8222C5.97562 23.6987 6.05859 23.5752 6.19192 23.5467L22.6961 20.0059C22.8291 19.9774 22.9628 20.0543 22.9936 20.1777C23.0244 20.3012 22.9414 20.4247 22.8081 20.4532L6.30387 23.994C6.28503 23.998 6.26619 24 6.24771 24Z" fill="black"/>
</svg>
