<svg width="48" height="49" viewBox="0 0 48 49" fill="none" xmlns="http://www.w3.org/2000/svg">
<path fill-rule="evenodd" clip-rule="evenodd" d="M13.6397 10.6738C11.4393 10.6738 10 12.0932 10 13.9596C10 15.7854 11.3976 17.2478 13.5543 17.2478H13.5973C15.8403 17.2478 17.2353 15.7857 17.2353 13.9596C17.193 12.0932 15.8403 10.6738 13.6397 10.6738ZM40 27.9574V38.8643H33.57V28.6879C33.57 26.1315 32.64 24.3868 30.3126 24.3868C28.5359 24.3868 27.4786 25.5626 27.0134 26.7C26.8438 27.1066 26.8001 27.6725 26.8001 28.2416V38.8643H20.368C20.368 38.8643 20.4546 21.6288 20.368 19.8431H26.7995V22.5392C26.7934 22.5487 26.7864 22.5586 26.7794 22.5683L26.7793 22.5685C26.7715 22.5794 26.7637 22.5904 26.7572 22.6007H26.7995V22.5392C27.654 21.245 29.18 19.3962 32.5957 19.3962C36.8276 19.3961 40 22.1148 40 27.9574ZM16.8117 38.8643H10.382V19.8431H16.8117V38.8643Z" fill="white"/>
</svg>
