<svg width="48" height="32" viewBox="0 0 48 32" fill="none" xmlns="http://www.w3.org/2000/svg">
<path d="M44.6316 32H2.52632C1.85652 31.9993 1.21437 31.7329 0.740753 31.2593C0.267136 30.7856 0.000735561 30.1435 0 29.4737V2.52632C0.000735561 1.85652 0.267136 1.21437 0.740753 0.740753C1.21437 0.267136 1.85652 0.000735561 2.52632 0H44.6316C45.3014 0.000735561 45.9435 0.267136 46.4171 0.740753C46.8908 1.21437 47.1572 1.85652 47.1579 2.52632V29.4737C47.1572 30.1435 46.8908 30.7856 46.4171 31.2593C45.9435 31.7329 45.3014 31.9993 44.6316 32ZM2.52632 1.68421C2.30304 1.68441 2.08896 1.7732 1.93108 1.93108C1.7732 2.08896 1.68441 2.30304 1.68421 2.52632V29.4737C1.68441 29.697 1.7732 29.911 1.93108 30.0689C2.08896 30.2268 2.30304 30.3156 2.52632 30.3158H44.6316C44.8549 30.3157 45.069 30.2269 45.2269 30.069C45.3848 29.9111 45.4736 29.697 45.4737 29.4737V2.52632C45.4736 2.30302 45.3848 2.0889 45.2269 1.93101C45.069 1.77311 44.8549 1.68434 44.6316 1.68421H2.52632Z" fill="#2E2F35"/>
<path d="M17.624 24.5267C17.4875 24.5267 17.353 24.4934 17.2322 24.4297L12.631 22.0111L8.02984 24.4297C7.89078 24.5029 7.73405 24.5356 7.57735 24.5243C7.42065 24.513 7.27024 24.4581 7.14311 24.3658C7.01598 24.2735 6.91722 24.1475 6.85797 24.002C6.79873 23.8564 6.78137 23.6973 6.80786 23.5424L7.68651 18.4182L3.9644 14.7899C3.85202 14.6802 3.77257 14.5412 3.73502 14.3887C3.69747 14.2362 3.70332 14.0762 3.75191 13.9269C3.8005 13.7775 3.88989 13.6447 4.00998 13.5435C4.13008 13.4423 4.27609 13.3766 4.43152 13.354L9.57544 12.6066L11.8756 7.94536C11.953 7.81387 12.0634 7.70487 12.1959 7.62915C12.3284 7.55342 12.4783 7.51359 12.6309 7.51359C12.7835 7.51359 12.9335 7.55342 13.066 7.62915C13.1984 7.70487 13.3089 7.81387 13.3863 7.94536L15.6864 12.6066L20.8303 13.354C20.9858 13.3766 21.1318 13.4423 21.2519 13.5435C21.372 13.6447 21.4614 13.7775 21.51 13.9269C21.5585 14.0762 21.5644 14.2362 21.5268 14.3887C21.4893 14.5412 21.4098 14.6802 21.2975 14.7899L17.5754 18.4182L18.454 23.5424C18.4746 23.6633 18.4686 23.7872 18.4364 23.9055C18.4042 24.0238 18.3465 24.1336 18.2675 24.2273C18.1884 24.3211 18.0899 24.3964 17.9787 24.4481C17.8676 24.4998 17.7466 24.5267 17.624 24.5267ZM12.631 20.2175C12.7676 20.2174 12.9021 20.2507 13.0228 20.3146L16.5056 22.1452L15.8404 18.2669C15.8175 18.1324 15.8275 17.9943 15.8697 17.8645C15.9119 17.7348 15.9849 17.6172 16.0826 17.5219L18.9 14.7751L15.0065 14.2094C14.8713 14.1898 14.743 14.1377 14.6324 14.0574C14.5219 13.9772 14.4325 13.8713 14.3721 13.7488L12.631 10.2208L10.89 13.7488C10.8296 13.8713 10.7402 13.9772 10.6297 14.0574C10.5192 14.1377 10.3908 14.1898 10.2556 14.2094L6.36213 14.7751L9.17956 17.5219C9.27718 17.6172 9.35021 17.7348 9.39239 17.8645C9.43457 17.9943 9.44465 18.1324 9.42175 18.2669L8.75649 22.1452L12.2393 20.3146C12.36 20.2507 12.4945 20.2174 12.631 20.2175Z" fill="#2E2F35"/>
<path d="M42.9472 10.1015H24.4209C24.1976 10.1015 23.9834 10.0128 23.8255 9.8549C23.6675 9.69697 23.5788 9.48278 23.5788 9.25944V5.89102C23.5788 5.66768 23.6675 5.45349 23.8255 5.29556C23.9834 5.13763 24.1976 5.04891 24.4209 5.04891H42.9472C43.1706 5.04891 43.3848 5.13763 43.5427 5.29556C43.7006 5.45349 43.7893 5.66768 43.7893 5.89102V9.25944C43.7893 9.48278 43.7006 9.69697 43.5427 9.8549C43.3848 10.0128 43.1706 10.1015 42.9472 10.1015ZM25.263 8.41733H42.1051V6.73312H25.263V8.41733Z" fill="#2E2F35"/>
<path d="M41.2629 15.157H26.105C25.8817 15.157 25.6675 15.0683 25.5096 14.9104C25.3516 14.7525 25.2629 14.5383 25.2629 14.3149C25.2629 14.0916 25.3516 13.8774 25.5096 13.7195C25.6675 13.5615 25.8817 13.4728 26.105 13.4728H41.2629C41.4863 13.4728 41.7004 13.5615 41.8584 13.7195C42.0163 13.8774 42.105 14.0916 42.105 14.3149C42.105 14.5383 42.0163 14.7525 41.8584 14.9104C41.7004 15.0683 41.4863 15.157 41.2629 15.157Z" fill="#2E2F35"/>
<path d="M42.9472 18.5266H24.4209C24.1976 18.5266 23.9834 18.4379 23.8255 18.28C23.6675 18.122 23.5788 17.9078 23.5788 17.6845C23.5788 17.4612 23.6675 17.247 23.8255 17.089C23.9834 16.9311 24.1976 16.8424 24.4209 16.8424H42.9472C43.1706 16.8424 43.3848 16.9311 43.5427 17.089C43.7006 17.247 43.7893 17.4612 43.7893 17.6845C43.7893 17.9078 43.7006 18.122 43.5427 18.28C43.3848 18.4379 43.1706 18.5266 42.9472 18.5266Z" fill="#2E2F35"/>
<path d="M42.9472 21.8934H24.4209C24.1976 21.8934 23.9834 21.8047 23.8255 21.6468C23.6675 21.4889 23.5788 21.2747 23.5788 21.0513C23.5788 20.828 23.6675 20.6138 23.8255 20.4559C23.9834 20.298 24.1976 20.2092 24.4209 20.2092H42.9472C43.1706 20.2092 43.3848 20.298 43.5427 20.4559C43.7006 20.6138 43.7893 20.828 43.7893 21.0513C43.7893 21.2747 43.7006 21.4889 43.5427 21.6468C43.3848 21.8047 43.1706 21.8934 42.9472 21.8934Z" fill="#2E2F35"/>
<path d="M29.4734 26.9478H26.105C25.8817 26.9478 25.6675 26.8591 25.5096 26.7012C25.3516 26.5432 25.2629 26.329 25.2629 26.1057C25.2629 25.8824 25.3516 25.6682 25.5096 25.5102C25.6675 25.3523 25.8817 25.2636 26.105 25.2636H29.4734C29.6968 25.2636 29.911 25.3523 30.0689 25.5102C30.2268 25.6682 30.3155 25.8824 30.3155 26.1057C30.3155 26.329 30.2268 26.5432 30.0689 26.7012C29.911 26.8591 29.6968 26.9478 29.4734 26.9478Z" fill="#2E2F35"/>
<path d="M41.2632 26.9478H32.8421C32.6188 26.9478 32.4046 26.8591 32.2466 26.7012C32.0887 26.5432 32 26.329 32 26.1057C32 25.8824 32.0887 25.6682 32.2466 25.5102C32.4046 25.3523 32.6188 25.2636 32.8421 25.2636H41.2632C41.4865 25.2636 41.7007 25.3523 41.8586 25.5102C42.0165 25.6682 42.1053 25.8824 42.1053 26.1057C42.1053 26.329 42.0165 26.5432 41.8586 26.7012C41.7007 26.8591 41.4865 26.9478 41.2632 26.9478Z" fill="#2E2F35"/>
</svg>
