<svg width="32" height="32" viewBox="0 0 32 32" fill="none" xmlns="http://www.w3.org/2000/svg">
<path d="M24.9954 25V24.9993H25V18.569C25 15.4232 24.2828 13 20.3883 13C18.5161 13 17.2597 13.9702 16.7468 14.8899H16.6926V13.2937H13V24.9993H16.845V19.2031C16.845 17.677 17.1514 16.2013 19.1528 16.2013C21.1248 16.2013 21.1542 17.9429 21.1542 19.301V25H24.9954Z" fill="#B6B8BD"/>
<path d="M7 13H11V25H7V13Z" fill="#B6B8BD"/>
<path d="M9 7C7.89591 7 7 7.89173 7 8.99068C7 10.0896 7.89591 11 9 11C10.1041 11 11 10.0896 11 8.99068C10.9993 7.89173 10.1034 7 9 7V7Z" fill="#B6B8BD"/>
</svg>
