<svg width="32" height="32" viewBox="0 0 32 32" fill="none" xmlns="http://www.w3.org/2000/svg">
<path d="M20.932 6.66993L18.3735 6.66602C15.4992 6.66602 13.6417 8.48139 13.6417 11.2912V13.4237H11.0693C10.847 13.4237 10.667 13.5953 10.667 13.8071V16.8968C10.667 17.1086 10.8472 17.28 11.0693 17.28H13.6417V25.0765C13.6417 25.2882 13.8217 25.4597 14.044 25.4597H17.4002C17.6225 25.4597 17.8025 25.288 17.8025 25.0765V17.28H20.8103C21.0326 17.28 21.2126 17.1086 21.2126 16.8968L21.2138 13.8071C21.2138 13.7054 21.1713 13.608 21.096 13.5361C21.0207 13.4641 20.918 13.4237 20.8113 13.4237H17.8025V11.6159C17.8025 10.747 18.0199 10.3059 19.2081 10.3059L20.9316 10.3054C21.1537 10.3054 21.3337 10.1337 21.3337 9.92215V7.05314C21.3337 6.84179 21.1539 6.67032 20.932 6.66993Z" fill="#3B5998"/>
</svg>
