<svg width="48" height="49" viewBox="0 0 48 49" fill="none" xmlns="http://www.w3.org/2000/svg">
<path fill-rule="evenodd" clip-rule="evenodd" d="M33.2401 10.6738C38.3312 10.6738 40.997 11.375 42.4409 13.0938C43.8915 14.8202 44 17.4646 44 21.3017V28.2366C44 32.6335 43.3075 35.1733 41.6844 36.7288C40.1017 38.2456 37.6552 38.8643 33.2403 38.8643H14.7595C5.664 38.8643 4 35.2854 4 28.2366V21.3017C4 17.6632 4 15.0343 5.40245 13.2501C6.8409 11.4202 9.55187 10.6738 14.7595 10.6738H33.2401ZM21.2881 30.1187L29.6801 25.7266C30.1065 25.5036 30.3734 25.0615 30.3729 24.5795C30.3723 24.0979 30.1041 23.6565 29.6772 23.4346L21.2852 19.0707C20.8853 18.8626 20.4059 18.8787 20.0205 19.1131C19.6352 19.3475 19.4001 19.7661 19.4001 20.2173V28.9735C19.4001 29.4255 19.6359 29.8446 20.0219 30.0788C20.227 30.2031 20.4585 30.2657 20.6905 30.2657C20.8954 30.2657 21.1005 30.217 21.2881 30.1187Z" fill="white"/>
</svg>
