<svg width="32" height="32" viewBox="0 0 32 32" fill="none" xmlns="http://www.w3.org/2000/svg">
<path d="M25.7782 9.89415C25.051 10.2154 24.2761 10.4283 23.4682 10.5317C24.2993 10.032 24.9337 9.24677 25.2319 8.30031C24.457 8.76554 23.6014 9.09415 22.6897 9.27754C21.9539 8.48862 20.9052 8 19.7612 8C17.5417 8 15.7548 9.81415 15.7548 12.0382C15.7548 12.3582 15.7817 12.6658 15.8477 12.9588C12.5147 12.7951 9.56543 11.1865 7.58421 8.736C7.23832 9.34031 7.03543 10.032 7.03543 10.7766C7.03543 12.1748 7.75043 13.4142 8.81621 14.1317C8.1721 14.1194 7.54021 13.9311 7.00488 13.6345C7.00488 13.6468 7.00488 13.6628 7.00488 13.6788C7.00488 15.6406 8.39455 17.2702 10.2169 17.6455C9.89055 17.7354 9.53488 17.7785 9.16577 17.7785C8.9091 17.7785 8.64999 17.7637 8.40677 17.7095C8.92621 19.3083 10.4002 20.4837 12.1529 20.5218C10.7889 21.5963 9.05699 22.2437 7.1821 22.2437C6.85332 22.2437 6.53799 22.2289 6.22266 22.1883C7.99855 23.3415 10.1032 24 12.3729 24C19.7502 24 23.7835 17.8462 23.7835 12.512C23.7835 12.3335 23.7774 12.1612 23.7689 11.9902C24.5645 11.4215 25.2331 10.7114 25.7782 9.89415Z" fill="#B6B8BD"/>
</svg>
