<svg width="32" height="32" viewBox="0 0 32 32" fill="none" xmlns="http://www.w3.org/2000/svg">
<path d="M16.2344 7C11.5108 7.00075 9 10.162 9 13.6091C9 15.2074 9.85512 17.2016 11.2243 17.8339C11.6149 18.0177 11.5632 17.7934 11.8992 16.4509C11.9258 16.3391 11.9121 16.2424 11.826 16.1381C9.86876 13.7733 11.444 8.91178 15.9551 8.91178C22.4838 8.91178 21.2639 18.3484 17.091 18.3484C16.0154 18.3484 15.2142 17.4664 15.4676 16.3751C15.7749 15.0754 16.3766 13.6781 16.3766 12.7413C16.3766 10.3803 13.0092 10.7306 13.0092 13.8588C13.0092 14.8256 13.3366 15.4781 13.3366 15.4781C13.3366 15.4781 12.2532 20.0502 12.0522 20.9044C11.7118 22.3505 12.0981 24.6912 12.1319 24.893C12.1527 25.004 12.2719 25.0393 12.3386 24.9478C12.4456 24.8015 13.7552 22.85 14.1221 21.4392C14.2557 20.9254 14.8035 18.8404 14.8035 18.8404C15.1646 19.5214 16.2057 20.0914 17.315 20.0914C20.6149 20.0914 23 17.0614 23 13.3016C22.9885 9.69704 20.0354 7 16.2344 7V7Z" fill="#B6B8BD"/>
</svg>
