<svg width="42" height="42" viewBox="0 0 42 42" fill="none" xmlns="http://www.w3.org/2000/svg">
<path d="M9.1875 12.4688H9.84375C10.3657 12.4682 10.8661 12.2605 11.2352 11.8915C11.6043 11.5224 11.8119 11.022 11.8125 10.5V9.84375H10.5V10.5C10.4998 10.674 10.4306 10.8408 10.3076 10.9638C10.1845 11.0868 10.0177 11.1561 9.84375 11.1562H9.1875V12.4688Z" fill="black"/>
<path d="M8.53125 9.1875C8.89369 9.1875 9.1875 8.89369 9.1875 8.53125C9.1875 8.16881 8.89369 7.875 8.53125 7.875C8.16881 7.875 7.875 8.16881 7.875 8.53125C7.875 8.89369 8.16881 9.1875 8.53125 9.1875Z" fill="black"/>
<path d="M12.4688 9.1875C12.8312 9.1875 13.125 8.89369 13.125 8.53125C13.125 8.16881 12.8312 7.875 12.4688 7.875C12.1063 7.875 11.8125 8.16881 11.8125 8.53125C11.8125 8.89369 12.1063 9.1875 12.4688 9.1875Z" fill="black"/>
<path d="M35.4375 23.625C35.4373 23.799 35.3681 23.9658 35.2451 24.0888C35.122 24.2118 34.9552 24.2811 34.7812 24.2812H34.125V25.5938H34.7812C35.3032 25.5932 35.8036 25.3855 36.1727 25.0165C36.5418 24.6474 36.7494 24.147 36.75 23.625V22.9688H35.4375V23.625Z" fill="black"/>
<path d="M36.75 13.7812H34.125C33.0811 13.7824 32.0802 14.1976 31.3421 14.9358C30.6039 15.674 30.1887 16.6748 30.1875 17.7188V23.601L28.8286 22.0156L28.206 18.9025C28.2037 18.8912 28.2001 18.8803 28.1972 18.8692L28.1984 18.8689L27.8543 17.5213L29.1187 17.0156C29.2405 16.9668 29.3449 16.8828 29.4184 16.7742C29.492 16.6656 29.5313 16.5374 29.5312 16.4062V13.7812C29.5313 13.6517 29.4929 13.525 29.421 13.4172L28.1085 11.4485C28.0486 11.3586 27.9674 11.2849 27.8722 11.2339C27.7769 11.1829 27.6705 11.1562 27.5625 11.1562H26.229L26.1918 11.0105L26.357 10.7901C27.4917 9.28217 28.1298 7.45887 28.1828 5.57244C28.1912 5.27064 28.1133 4.97272 27.9582 4.71365C27.8032 4.45458 27.5775 4.24511 27.3076 4.10981C27.3054 4.10877 27.3031 4.10757 27.3007 4.10645C27.1084 4.01176 26.8988 3.9572 26.6848 3.9461C26.4707 3.935 26.2566 3.9676 26.0556 4.0419C25.9173 3.56916 25.6068 3.16541 25.1855 2.91029C24.7642 2.65516 24.2625 2.56718 23.7795 2.6637L23.2905 2.76151C22.3826 2.94307 21.577 3.46148 21.0356 4.2126C20.4943 4.96371 20.2572 5.89187 20.372 6.8106C20.3732 6.81973 20.3745 6.82878 20.376 6.83783L21.009 10.6086C21.0097 10.6127 21.0104 10.6169 21.0112 10.621L21.5732 13.6178L20.8408 13.8009C20.7254 13.8297 20.62 13.8894 20.5359 13.9735C20.4518 14.0576 20.3922 14.1629 20.3633 14.2783L19.7549 16.712L17.9707 18.3476L13.6669 15.9565L13.3224 14.9233C14.066 14.4493 14.6783 13.7955 15.1025 13.0225C15.5268 12.2494 15.7495 11.3819 15.75 10.5V5.90625C15.7486 4.68833 15.2642 3.52069 14.403 2.65949C13.5418 1.7983 12.3742 1.31387 11.1562 1.3125H9.84375C8.62583 1.31387 7.45819 1.7983 6.59699 2.65949C5.7358 3.52069 5.25137 4.68833 5.25 5.90625V10.5C5.25052 11.3819 5.47319 12.2494 5.89747 13.0224C6.32175 13.7955 6.93395 14.4493 7.67756 14.9233L7.33315 15.9565L3.00019 18.3637C2.48881 18.6481 2.06271 19.0639 1.76599 19.5682C1.46927 20.0725 1.3127 20.647 1.3125 21.2321V25.5938C1.3125 25.6982 1.33743 25.8012 1.38523 25.894C1.43303 25.9869 1.50231 26.067 1.58731 26.1278L2.625 26.869V40.0312C2.625 40.2053 2.69414 40.3722 2.81721 40.4953C2.94028 40.6184 3.1072 40.6875 3.28125 40.6875H18.375C18.549 40.6875 18.716 40.6184 18.839 40.4953C18.9621 40.3722 19.0312 40.2053 19.0312 40.0312V26.9062H21C21.1185 26.9062 21.2348 26.8742 21.3365 26.8134C21.4382 26.7526 21.5216 26.6655 21.5778 26.5611L22.8193 24.2555L23.6377 28.3475C23.6592 28.4547 23.7071 28.5548 23.7771 28.6388L26.9444 32.4397L28.2277 40.1392C28.2532 40.2924 28.3323 40.4316 28.4508 40.532C28.5694 40.6324 28.7197 40.6875 28.875 40.6875H40.0312C40.2053 40.6875 40.3722 40.6184 40.4953 40.4953C40.6184 40.3722 40.6875 40.2053 40.6875 40.0312V28.2188C40.6875 28.081 40.6442 27.9468 40.5636 27.835C40.4831 27.7233 40.3694 27.6397 40.2388 27.5961L39.2226 27.2574C40.1629 26.282 40.6881 24.9798 40.6875 23.625V17.7188C40.6863 16.6748 40.2711 15.674 39.5329 14.9358C38.7948 14.1976 37.7939 13.7824 36.75 13.7812ZM31.5 17.7188C31.5008 17.0228 31.7776 16.3556 32.2697 15.8635C32.7618 15.3714 33.4291 15.0945 34.125 15.0938H36.75C37.4459 15.0945 38.1132 15.3714 38.6053 15.8635C39.0974 16.3556 39.3742 17.0228 39.375 17.7188V18.375H37.487C36.8604 18.3757 36.2515 18.1665 35.7575 17.7809C35.2636 17.3952 34.913 16.8552 34.7617 16.2471C34.7262 16.1051 34.6442 15.9791 34.5289 15.889C34.4135 15.7989 34.2714 15.75 34.125 15.75C33.9786 15.75 33.8365 15.7989 33.7211 15.889C33.6058 15.9791 33.5238 16.1051 33.4883 16.2471L33.4688 16.3254C33.3503 16.8015 33.1045 17.2364 32.7577 17.5833C32.4108 17.9303 31.976 18.1762 31.5 18.2948V17.7188ZM27.2113 12.4688L28.2188 13.9799V15.962L27.5268 16.2387L26.5641 12.4688H27.2113ZM22.3024 10.3851L21.6728 6.635C21.6026 6.04704 21.7566 5.45422 22.1042 4.97481C22.4517 4.4954 22.9673 4.16464 23.5479 4.04853L24.037 3.95072C24.1322 3.93167 24.2304 3.93399 24.3246 3.9575C24.4188 3.98102 24.5066 4.02515 24.5817 4.08671C24.6568 4.14827 24.7173 4.22572 24.7588 4.31349C24.8003 4.40125 24.8219 4.49714 24.8219 4.59423V5.24507C24.4159 5.52246 24.084 5.89505 23.8552 6.33028C23.6264 6.76552 23.5077 7.25016 23.5094 7.74186V8.24318H24.8219V7.74186C24.8208 7.42256 24.9092 7.10934 25.0771 6.83773C25.2449 6.56611 25.4856 6.34696 25.7716 6.20513C25.8871 6.1474 25.9829 6.05693 26.0472 5.94502L26.3651 5.39147C26.3996 5.33161 26.4556 5.28716 26.5217 5.26718C26.5878 5.24721 26.6591 5.25321 26.7209 5.28397L26.7247 5.28581C26.7699 5.30916 26.8076 5.34479 26.8335 5.38861C26.8593 5.43242 26.8723 5.48264 26.8709 5.5335C26.8255 7.1493 26.279 8.71103 25.307 10.0026L24.9531 10.4744C24.8942 10.553 24.8537 10.6437 24.8345 10.7399C24.8153 10.8362 24.818 10.9355 24.8423 11.0306L26.803 18.7094L24.1477 20.2267L23.9112 18.9656L25.231 18.3057C25.34 18.2512 25.4317 18.1674 25.4957 18.0638C25.5598 17.9601 25.5938 17.8406 25.5938 17.7188V14.4375C25.5938 14.3156 25.5598 14.1962 25.4957 14.0925C25.4317 13.9888 25.34 13.905 25.231 13.8505L23.9185 13.1943C23.7784 13.1241 23.6178 13.1065 23.4658 13.1446L22.8487 13.2989L22.3024 10.3851ZM20.7872 17.5463C20.882 17.4594 20.9492 17.3465 20.9804 17.2217L21.5412 14.9786L23.5487 14.4768L24.2812 14.8431V17.3132L22.019 18.4443C21.9356 18.486 21.862 18.545 21.8032 18.6174L13.4689 28.875H11.3112L8.18232 27.3106L10.1123 23.8367L12.1753 24.8682C12.2941 24.9277 12.4282 24.9496 12.5598 24.9312C12.6914 24.9128 12.8143 24.8548 12.9122 24.765L20.7872 17.5463ZM9.84375 2.625H11.1562C11.664 2.62505 12.1647 2.74304 12.619 2.96966C13.0734 3.19628 13.4688 3.52534 13.7743 3.93089C13.4117 4.53539 12.8983 5.0353 12.2844 5.3816C11.6705 5.72789 10.9771 5.90869 10.2722 5.90625H6.5625C6.56349 5.03631 6.90951 4.20229 7.52465 3.58715C8.13979 2.97201 8.97381 2.62599 9.84375 2.625ZM6.5625 10.5V7.21875H10.2722C11.0543 7.22142 11.8275 7.05329 12.5378 6.72611C13.2482 6.39892 13.8785 5.92058 14.3848 5.3245C14.4196 5.51647 14.4373 5.71115 14.4375 5.90625V10.5C14.4375 11.5443 14.0227 12.5458 13.2842 13.2842C12.5458 14.0227 11.5443 14.4375 10.5 14.4375C9.45571 14.4375 8.45419 14.0227 7.71577 13.2842C6.97734 12.5458 6.5625 11.5443 6.5625 10.5ZM10.5 15.75C11.053 15.7501 11.6024 15.6625 12.1279 15.4903L12.3742 16.229L11.3485 17.2547C11.3179 17.2853 11.2905 17.3188 11.2665 17.3547L10.5 18.5045L9.73352 17.3547C9.70955 17.3188 9.68209 17.2853 9.65153 17.2547L8.62584 16.229L8.87205 15.4903C9.39755 15.6625 9.94703 15.7501 10.5 15.75ZM2.625 21.2321C2.62512 20.881 2.71907 20.5363 2.89711 20.2337C3.07515 19.9311 3.33082 19.6816 3.63765 19.511L7.76098 17.2203L8.67753 18.1368L9.95398 20.0515C10.0139 20.1414 10.0951 20.2151 10.1903 20.2661C10.2856 20.3171 10.392 20.3438 10.5 20.3438C10.608 20.3438 10.7144 20.3171 10.8097 20.2661C10.9049 20.2151 10.9861 20.1414 11.046 20.0515L12.3225 18.1368L13.239 17.2203L16.9508 19.2824L12.3582 23.4923L10.1372 22.3818L7.51223 21.0693L6.92527 22.2432L8.93724 23.2492L6.34581 27.9138L2.625 25.256V21.2321ZM17.7188 39.375H3.9375V27.8065L6.18106 29.409C6.25628 29.4627 6.342 29.4999 6.4326 29.5182C6.5232 29.5365 6.61665 29.5355 6.70682 29.5151C6.79698 29.4948 6.88184 29.4557 6.95583 29.4003C7.02982 29.3449 7.09127 29.2745 7.13616 29.1937L7.54432 28.459L10.8628 30.1182C10.9539 30.1638 11.0544 30.1875 11.1562 30.1875H13.7812C13.8788 30.1875 13.9752 30.1657 14.0633 30.1238C14.1514 30.0819 14.229 30.0208 14.2906 29.9451L16.7596 26.9062H17.7188V39.375ZM20.608 25.5938H17.826L22.695 19.6011L22.9416 20.9159L22.6432 21.0864C22.5236 21.1548 22.4285 21.259 22.3715 21.3844C22.3144 21.5098 22.2982 21.6499 22.3252 21.785L22.4156 22.2368L20.608 25.5938ZM39.375 39.375H29.4309L28.2098 32.0483C28.1907 31.9334 28.1413 31.8257 28.0667 31.7362L24.8921 27.9267L23.705 21.9913L27.0975 20.0528L27.5752 22.4412C27.5973 22.5515 27.6473 22.6542 27.7205 22.7396L31.658 27.3333L31.6947 27.3018C32.496 28.12 33.5433 28.6531 34.6763 28.8194C35.8094 28.9858 36.9657 28.7763 37.9683 28.2229L39.375 28.6917V39.375ZM35.4375 27.5625C34.3936 27.5613 33.3927 27.1461 32.6546 26.4079C31.9164 25.6698 31.5012 24.6689 31.5 23.625V19.6324C32.0284 19.5457 32.5341 19.3541 32.9872 19.0688C33.4404 18.7836 33.8319 18.4106 34.1386 17.9717C34.5201 18.5032 35.0229 18.9362 35.6053 19.2346C36.1876 19.533 36.8327 19.6883 37.487 19.6875H39.375V23.625C39.3738 24.6689 38.9586 25.6698 38.2204 26.4079C37.4823 27.1461 36.4814 27.5613 35.4375 27.5625Z" fill="black"/>
<path d="M33.4688 22.3125C33.8312 22.3125 34.125 22.0187 34.125 21.6562C34.125 21.2938 33.8312 21 33.4688 21C33.1063 21 32.8125 21.2938 32.8125 21.6562C32.8125 22.0187 33.1063 22.3125 33.4688 22.3125Z" fill="black"/>
<path d="M37.4062 22.3125C37.7687 22.3125 38.0625 22.0187 38.0625 21.6562C38.0625 21.2938 37.7687 21 37.4062 21C37.0438 21 36.75 21.2938 36.75 21.6562C36.75 22.0187 37.0438 22.3125 37.4062 22.3125Z" fill="black"/>
</svg>
