<svg width="42" height="42" viewBox="0 0 42 42" fill="none" xmlns="http://www.w3.org/2000/svg">
<g clip-path="url(#clip0)">
<path d="M24.6432 24.7416C25.3356 24.7416 25.9813 24.3689 26.3286 23.7694C26.4991 23.4755 26.3988 23.0994 26.105 22.9289C25.8111 22.7587 25.4346 22.8587 25.2645 23.1529C25.1363 23.374 24.8982 23.5114 24.6432 23.5114C24.3881 23.5114 24.15 23.374 24.0222 23.1525C23.852 22.8587 23.4755 22.7584 23.1817 22.9286C22.8875 23.0987 22.7872 23.4752 22.9574 23.7691C23.3047 24.3689 23.9507 24.7416 24.6432 24.7416Z" fill="black"/>
<path d="M18.8186 22.9289C18.5248 22.7587 18.1486 22.8587 17.9781 23.1529C17.8499 23.374 17.6119 23.5114 17.3571 23.5114C17.102 23.5114 16.864 23.374 16.7358 23.1525C16.5656 22.8587 16.1891 22.7584 15.8953 22.9286C15.6011 23.099 15.5012 23.4752 15.6713 23.7691C16.0187 24.3689 16.6647 24.7416 17.3571 24.7416C18.0493 24.7416 18.6952 24.3692 19.0426 23.7697C19.2128 23.4755 19.1125 23.0994 18.8186 22.9289Z" fill="black"/>
<path d="M39.0313 31.2957C39.0377 31.2579 39.0451 31.2124 39.0534 31.1598C39.0791 30.998 39.1143 30.7666 39.156 30.4876C39.2345 29.9627 39.3408 29.2334 39.4559 28.4339C39.6033 27.4075 39.8885 25.3981 39.9125 25.1398C40.2371 21.6593 40.1384 18.1464 39.603 14.0849C39.5869 13.9647 39.4389 13.0448 39.3037 12.228C39.2325 11.7996 39.1617 11.3772 39.1069 11.0626C39.0791 10.9017 39.0553 10.7684 39.0374 10.6752C39.0368 10.672 39.0361 10.6687 39.0358 10.6652C40.8539 10.0051 42.0411 8.27575 41.9985 6.33264C41.9466 3.96656 40.0551 2.03467 37.6922 1.93438C35.8186 1.85395 34.0848 2.95111 33.3526 4.66863H26.7469C26.6982 4.39627 26.6267 4.12294 26.5318 3.85057C25.7481 1.60689 23.5441 0.0595205 21.0476 0.000240325C21.038 -8.01083e-05 21.0284 -8.01083e-05 21.0185 0.000240325C18.5005 0.0601614 16.277 1.62227 15.4859 3.88742C15.3949 4.14761 15.3257 4.40844 15.2769 4.66895H8.64686C8.46165 4.23413 8.20979 3.83262 7.89768 3.4747C7.67434 3.21867 7.28566 3.19208 7.02963 3.41542C6.7736 3.63876 6.74701 4.02713 6.97035 4.28347C7.20875 4.55648 7.39845 4.8641 7.53463 5.19799C7.70831 5.62385 8.1175 5.8991 8.57668 5.8991H15.2032C15.2173 6.1109 15.2465 6.32079 15.2885 6.52811C15.0244 6.61847 14.7646 6.72517 14.5098 6.84822C14.2631 6.96742 14.0148 7.09175 13.7715 7.21704C13.2492 7.48652 12.9663 8.03607 13.0509 8.61733C13.1358 9.19988 13.5652 9.64721 14.1442 9.75647C14.5986 9.84235 15.0389 9.93816 15.4679 10.0413C14.8069 10.4746 14.191 10.9565 13.6286 11.4826C12.1489 12.8679 11.1437 14.2784 10.6409 15.6755C10.0225 17.3934 10.1689 19.0526 11.0741 20.6121C11.0802 20.8012 11.0908 20.9902 11.1068 21.1793C11.1501 21.6859 11.2145 22.1797 11.277 22.6574C11.2795 22.6789 11.2824 22.7004 11.2853 22.7218C11.3077 22.8952 11.3302 23.0679 11.3513 23.241C11.4186 23.7882 11.4721 24.3227 11.4814 24.8732C11.5461 28.672 14.2676 32.2041 17.9019 33.7124V34.31C17.9019 34.542 17.7638 34.7509 17.5504 34.8419L14.6829 36.0637H8.57668C8.1175 36.0637 7.70831 36.339 7.53463 36.7648C7.01425 38.0402 5.73989 38.8576 4.35946 38.799C2.64258 38.7262 1.26824 37.3221 1.23075 35.6026C1.19935 34.1674 2.09047 32.8927 3.44815 32.431C3.90573 32.2752 4.21302 31.8468 4.21302 31.3649V31.3149C4.21302 31.2588 4.20533 31.2044 4.19123 31.1525C4.10728 30.6974 3.34689 25.4042 3.31164 25.0258C2.99602 21.6391 3.09279 18.2137 3.61605 14.2457C3.64778 14.0054 4.10824 11.1923 4.18386 10.8347C4.20277 10.7758 4.21302 10.7126 4.21302 10.6476V10.5976C4.21302 10.1157 3.90573 9.68726 3.44815 9.53153C2.09047 9.06979 1.19935 7.7951 1.23075 6.35956C1.26856 4.64012 2.6429 3.2363 4.35946 3.16356C4.53762 3.15587 4.71642 3.1626 4.89138 3.1831C5.22912 3.22252 5.53417 2.98155 5.57422 2.64446C5.61396 2.30704 5.37267 2.00135 5.03525 1.96161C4.79557 1.93309 4.55076 1.92412 4.30723 1.93438C1.94435 2.03467 0.0525149 3.96688 0.000925111 6.33296C-0.0416925 8.27607 1.14519 10.0051 2.96365 10.6655C2.96301 10.6687 2.96237 10.672 2.96173 10.6755C2.94411 10.7684 2.92007 10.902 2.8922 11.0626C2.8374 11.3775 2.76659 11.7996 2.69577 12.228C2.56055 13.0448 2.41219 13.9647 2.39648 14.0852C1.8604 18.1464 1.76203 21.6593 2.08663 25.1398C2.11066 25.3981 2.39584 27.4075 2.54356 28.4342C2.65828 29.2334 2.76466 29.9627 2.84317 30.4876C2.88483 30.7666 2.92007 30.998 2.94571 31.1598C2.95404 31.2124 2.96141 31.2582 2.96782 31.2957C1.14712 31.9548 -0.0416925 33.6852 0.000604682 35.6295C0.0525149 37.9956 1.94403 39.9278 4.30723 40.0281C6.18016 40.1079 7.91467 39.0114 8.64654 37.2939H12.1928C11.525 37.8774 11.1238 38.7281 11.1238 39.6475V41.3317C11.1238 41.6713 11.3991 41.9466 11.7387 41.9466H30.3133C30.6529 41.9466 30.9285 41.6713 30.9285 41.3317V39.6475C30.9285 38.7281 30.527 37.8774 29.8592 37.2939H33.3526C34.0598 38.9531 35.702 40.0323 37.5009 40.0323C37.564 40.0323 37.6281 40.031 37.6919 40.0281C40.0551 39.9278 41.9466 37.9956 41.9985 35.6295C42.0408 33.6925 40.8498 31.9548 39.0313 31.2957ZM4.18226 31.1223C4.16239 31.0621 4.13323 31.006 4.0967 30.9554C4.13516 31.0083 4.164 31.0653 4.18226 31.1223ZM16.6468 4.29309C17.2688 2.51308 19.0302 1.2839 21.0329 1.23038C23.0141 1.28326 24.756 2.49802 25.3703 4.25656C25.8285 5.56841 25.5613 6.91872 24.6628 8.00338C23.9873 7.69961 23.3515 7.4548 22.8036 7.26446C21.4277 6.7867 20.0677 6.50504 18.803 6.27208C18.0256 6.12885 17.2438 6.11859 16.4815 6.23555C16.3651 5.60911 16.4167 4.95222 16.6468 4.29309ZM14.3724 8.5478C14.3499 8.54363 14.2814 8.53082 14.2682 8.43981C14.2554 8.3517 14.3134 8.32157 14.3352 8.31036C14.5691 8.18988 14.8078 8.07067 15.0453 7.95596C15.8207 7.58105 16.6824 7.38783 17.5453 7.38783C17.892 7.38783 18.2387 7.41891 18.5803 7.48204C19.2314 7.60188 19.9085 7.73614 20.5958 7.90309C19.3237 8.18667 18.115 8.61157 16.9897 9.17072C16.1639 8.93232 15.2933 8.72147 14.3724 8.5478ZM11.7983 16.0921C12.2344 14.8802 13.1329 13.6315 14.4695 12.3808C15.2644 11.6361 16.1786 10.9873 17.1867 10.4518C18.4954 9.75423 19.9373 9.25916 21.4722 8.98006C21.9852 8.88714 22.6482 8.78076 23.3009 8.76409C24.1786 9.11817 25.0063 9.52801 25.7747 9.98847C24.2792 10.4412 22.8568 10.9693 21.5328 11.5647C15.6445 14.2089 12.8727 17.5792 11.7826 19.2586C11.3933 18.2435 11.3997 17.1992 11.7983 16.0921ZM27.1897 10.8633C28.8986 12.1097 30.4049 13.8199 30.7411 16.0738C30.8968 17.1171 30.759 18.1919 30.3524 19.1888C29.8323 18.2518 28.9143 16.8355 27.4563 15.315C26.4831 14.3002 25.178 13.156 23.4925 12.078C24.664 11.6204 25.9012 11.2138 27.1897 10.8633ZM15.3112 30.5343C13.6697 28.9261 12.7465 26.9083 12.7116 24.8524C12.7042 24.4317 12.6734 24.0193 12.6318 23.6146C14.9129 22.9125 16.9829 22.0887 18.7908 21.1617C19.093 21.0069 19.2125 20.6358 19.0574 20.3337C18.9023 20.0315 18.5316 19.9123 18.2294 20.0671C17.3537 20.516 16.4549 20.9197 15.5416 21.2866C14.5518 21.6846 13.5235 22.1098 12.4873 22.3678C12.3908 21.964 12.3687 21.4952 12.3328 21.0745C12.3254 20.988 12.3193 20.9018 12.3142 20.8153C12.3142 20.8124 12.3139 20.8092 12.3139 20.806C12.3152 20.8034 12.3165 20.8012 12.3177 20.7986C12.3229 20.7871 12.8583 19.6088 14.3163 18.0288C15.6634 16.5686 18.0961 14.4566 22.0368 12.6872C22.0548 12.6788 22.0733 12.6711 22.0913 12.6631C24.0238 13.7936 25.4786 15.0369 26.5254 16.1219C28.6143 18.2864 29.5378 20.2532 29.7256 20.6845C29.3481 20.4221 28.9764 20.1449 28.614 19.8546L28.4224 19.7014C27.4262 18.9048 26.3963 18.0813 25.494 17.1636C24.7352 16.3917 23.4746 16.3606 22.6841 17.0947C22.5956 17.1768 22.504 17.2581 22.4114 17.3366C21.8817 17.7869 21.2921 18.2287 20.6589 18.6504C20.3763 18.8385 20.2997 19.2205 20.4878 19.5031C20.6762 19.786 21.0582 19.8623 21.3408 19.6742C22.0137 19.2259 22.6418 18.7549 23.208 18.2739C23.3141 18.1839 23.4195 18.0903 23.5211 17.9961C23.8284 17.7106 24.3199 17.7241 24.6169 18.0262C25.5705 18.9962 26.6299 19.8431 27.6543 20.6621L27.8453 20.8149C28.417 21.2728 29.0107 21.7006 29.6144 22.0909C29.5971 22.2277 29.5795 22.3636 29.5619 22.4982C29.4632 23.2557 29.361 24.0388 29.3472 24.8524C29.3122 26.9083 28.3891 28.9261 26.7475 30.5347C25.1694 32.0807 23.0878 33.0597 21.0294 33.2253C18.9709 33.0593 16.889 32.0804 15.3112 30.5343ZM29.6984 40.7164H12.354V39.6475C12.354 38.8855 12.807 38.2001 13.5082 37.9014L18.0324 35.9737C18.7005 35.6888 19.1321 35.0361 19.1321 34.31V34.135C19.7335 34.2991 20.3529 34.4084 20.9835 34.4555C20.9986 34.4568 21.014 34.4571 21.0294 34.4571C21.0444 34.4571 21.0598 34.4568 21.0749 34.4555C21.7036 34.4087 22.3207 34.2997 22.9202 34.1366V34.31C22.9202 35.0361 23.3519 35.6891 24.02 35.9737L28.5445 37.9014C29.2453 38.2001 29.6984 38.8855 29.6984 39.6475V40.7164ZM40.7687 35.6029C40.7309 37.3221 39.3565 38.7262 37.6397 38.7993C36.2612 38.8566 34.9852 38.0402 34.4645 36.7648C34.2908 36.339 33.8816 36.0637 33.4228 36.0637H27.3698L24.5022 34.8419C24.2885 34.7509 24.1507 34.5423 24.1507 34.31V33.715C27.7879 32.208 30.5123 28.6742 30.577 24.8732C30.5898 24.1292 30.6831 23.4143 30.7818 22.6571C30.8157 22.3963 30.85 22.1303 30.8814 21.8605C30.882 21.8573 30.883 21.8541 30.8833 21.8506C30.9192 21.5353 30.9525 21.2165 30.9715 20.8999C30.9747 20.8476 30.9769 20.7954 30.9791 20.7432C30.9801 20.7185 30.9817 20.6941 30.9827 20.6701C31.8542 19.2086 32.201 17.5222 31.9581 15.8921C31.6476 13.8106 30.4886 11.9377 28.5131 10.3259C27.647 9.61901 26.7087 9.03454 25.7961 8.55485C26.3982 7.75184 26.7443 6.84406 26.8129 5.8991H33.4228C33.8819 5.8991 34.2908 5.62385 34.4648 5.19799C34.9852 3.92266 36.2618 3.10524 37.64 3.16356C39.3569 3.2363 40.7309 4.64044 40.7687 6.35956C40.8001 7.7951 39.909 9.06979 38.5516 9.53153C38.0937 9.68726 37.7864 10.1157 37.7864 10.5976V10.6476C37.7864 10.713 37.7964 10.7758 37.8153 10.8347C37.8912 11.192 38.3517 14.0054 38.3834 14.2461C38.9067 18.2137 39.0034 21.6391 38.6878 25.0258C38.6526 25.4052 37.8899 30.7119 37.8076 31.1544C37.7935 31.2063 37.7861 31.2604 37.7861 31.3152C37.7861 31.8199 38.1097 32.274 38.591 32.4448C39.9244 32.9177 40.7995 34.187 40.7687 35.6029ZM37.9607 30.8865C37.8928 30.9563 37.8425 31.0406 37.814 31.1326C37.8393 31.0457 37.8899 30.9592 37.9607 30.8865Z" fill="black"/>
</g>
<defs>
<clipPath id="clip0">
<rect width="42" height="42" fill="white"/>
</clipPath>
</defs>
</svg>
