<svg width="48" height="49" viewBox="0 0 48 49" fill="none" xmlns="http://www.w3.org/2000/svg">
<path d="M31.3975 10.6797L27.5598 10.6738C23.2483 10.6738 20.462 13.3969 20.462 17.6115V20.8103H16.6034C16.27 20.8103 16 21.0678 16 21.3854V26.02C16 26.3376 16.2703 26.5948 16.6034 26.5948H20.462V38.2895C20.462 38.6071 20.7321 38.8643 21.0655 38.8643H26.0999C26.4333 38.8643 26.7033 38.6068 26.7033 38.2895V26.5948H31.2149C31.5483 26.5948 31.8184 26.3376 31.8184 26.02L31.8202 21.3854C31.8202 21.2329 31.7565 21.0869 31.6435 20.9789C31.5305 20.871 31.3766 20.8103 31.2165 20.8103H26.7033V18.0987C26.7033 16.7954 27.0293 16.1337 28.8116 16.1337L31.3969 16.1328C31.73 16.1328 32 15.8754 32 15.558V11.2545C32 10.9375 31.7303 10.6803 31.3975 10.6797Z" fill="white"/>
</svg>
