<svg width="42" height="42" viewBox="0 0 42 42" fill="none" xmlns="http://www.w3.org/2000/svg">
<path d="M39.2459 0.34375H22.7213C21.5805 0.34375 20.6557 1.26854 20.6557 2.40932C20.6557 6.73119 20.4444 2.28745 21.9598 23.0651H19.9672V18.9339C19.9649 17.0335 18.425 15.4936 16.5246 15.4913H9.63934C7.73898 15.4936 6.199 17.0335 6.19672 18.9339V23.0651H2.7541C1.23305 23.0651 0 24.2981 0 25.8192V38.9011C0 40.4222 1.23305 41.6552 2.7541 41.6552H23.4098C23.8923 41.6524 24.3654 41.5215 24.7807 41.2758C25.1997 41.5233 25.6773 41.6542 26.1639 41.6552H35.8033C37.3243 41.6552 38.5574 40.4222 38.5574 38.9011V33.9155C38.9765 33.6947 39.2536 33.275 39.292 32.8029C41.6213 0.946209 41.3115 6.28021 41.3115 2.40932C41.3115 1.26854 40.3867 0.34375 39.2459 0.34375ZM22.7213 1.7208H39.2459C39.6262 1.7208 39.9344 2.02906 39.9344 2.40932V4.4749H38.5574V3.78637C38.5574 3.40611 38.2491 3.09785 37.8689 3.09785C37.4886 3.09785 37.1803 3.40611 37.1803 3.78637V4.4749H35.8033V3.78637C35.8033 3.40611 35.495 3.09785 35.1147 3.09785C34.7345 3.09785 34.4262 3.40611 34.4262 3.78637V4.4749H33.0492V3.78637C33.0492 3.40611 32.7409 3.09785 32.3607 3.09785C31.9804 3.09785 31.6721 3.40611 31.6721 3.78637V4.4749H30.2951V3.78637C30.2951 3.40611 29.9868 3.09785 29.6066 3.09785C29.2263 3.09785 28.918 3.40611 28.918 3.78637V4.4749H27.541V3.78637C27.541 3.40611 27.2327 3.09785 26.8525 3.09785C26.4722 3.09785 26.1639 3.40611 26.1639 3.78637V4.4749H24.7869V3.78637C24.7869 3.40611 24.4786 3.09785 24.0984 3.09785C23.7181 3.09785 23.4098 3.40611 23.4098 3.78637V4.4749H22.0328V2.40932C22.0328 2.02906 22.341 1.7208 22.7213 1.7208ZM7.57377 20.9995H13.082C13.4622 20.9995 13.7705 20.6912 13.7705 20.311C13.7705 19.9307 13.4622 19.6224 13.082 19.6224H7.57377V18.9339C7.57377 17.7931 8.49856 16.8683 9.63934 16.8683H16.5246C17.6654 16.8683 18.5902 17.7931 18.5902 18.9339V19.6224H15.8361C15.4558 19.6224 15.1475 19.9307 15.1475 20.311C15.1475 20.6912 15.4558 20.9995 15.8361 20.9995H18.5902V23.0651H7.57377V20.9995ZM2.7541 24.4421H23.4098C24.1704 24.4421 24.7869 25.0586 24.7869 25.8192H1.37705C1.37705 25.0586 1.99357 24.4421 2.7541 24.4421ZM37.1803 36.147H34.1784C33.6934 36.1579 33.2543 36.4361 33.0375 36.87C32.4736 37.3641 31.7294 37.6011 30.9836 37.5241C30.238 37.6013 29.4939 37.3643 28.9304 36.87C28.7127 36.4366 28.2737 36.1585 27.7889 36.147H26.1639V34.0815H37.1803V36.147ZM1.37705 27.1962H24.7869V37.5241H1.37705V27.1962ZM2.7541 40.2782C1.99357 40.2782 1.37705 39.6616 1.37705 38.9011H24.7869C24.7869 39.6616 24.1704 40.2782 23.4098 40.2782H2.7541ZM35.8033 40.2782C25.2516 40.2782 26.0875 40.3009 25.8093 40.2258C26.25 39.4306 26.1639 38.9176 26.1639 37.5241H27.7186C28.7053 39.3294 33.1786 39.3914 34.2541 37.5241H37.1803V38.9011C37.1803 39.6616 36.5638 40.2782 35.8033 40.2782ZM37.917 32.7044H26.1639V25.8192C26.1642 25.0766 25.8646 24.3655 25.3331 23.847C24.8016 23.3284 24.0833 23.0465 23.341 23.0651L22.0844 5.85195H39.8821L37.917 32.7044Z" fill="black"/>
<path d="M20.6154 31.1755C20.1692 29.6697 15.5313 28.2541 13.3549 28.6576C10.567 29.1705 8.81819 30.9001 8.95727 32.934C8.11108 33.1048 7.16711 33.2659 6.11022 33.3994C5.73544 33.45 5.47158 33.7934 5.51923 34.1685C5.56688 34.5437 5.90821 34.8102 6.28373 34.7655C7.42393 34.6209 8.4395 34.4467 9.3456 34.2615C10.3316 36.1205 12.6188 36.4909 14.6961 36.1088C17.7415 35.5483 18.3246 33.0256 20.0343 32.3123C20.5019 32.151 20.7586 31.649 20.6154 31.1755ZM14.4469 34.7558C13.1766 34.9886 11.6019 34.9335 10.7743 33.9399C12.1116 33.6372 13.4146 33.1988 14.6631 32.6317C14.99 32.4541 15.1166 32.049 14.9492 31.7168C14.7817 31.3846 14.3806 31.2455 14.0434 31.4027C12.8516 31.9313 11.6106 32.3413 10.3385 32.6269C10.3949 31.3972 11.6377 30.3748 13.6048 30.0105C15.2084 29.7152 17.7669 30.5538 18.9574 31.3187C17.2519 32.3653 16.7094 34.3379 14.4469 34.7552V34.7558Z" fill="black"/>
<path d="M30.9833 7.23047C28.2505 7.23047 25.4751 14.0407 25.4751 18.9354C25.4751 23.5919 26.8404 25.5762 30.2948 25.7986V27.8862C30.2948 28.2665 30.603 28.5747 30.9833 28.5747C31.3636 28.5747 31.6718 28.2665 31.6718 27.8862V25.7986C35.1261 25.5762 36.4915 23.5919 36.4915 18.9354C36.4915 14.0407 33.716 7.23047 30.9833 7.23047ZM31.6718 24.4202V21.9745L33.5357 20.1107C33.7966 19.8405 33.7929 19.4111 33.5273 19.1455C33.2617 18.8799 32.8322 18.8762 32.5621 19.1371L31.6718 20.0274V17.8434L33.5357 15.9796C33.7966 15.7094 33.7929 15.28 33.5273 15.0144C33.2617 14.7488 32.8322 14.745 32.5621 15.006L31.6718 15.8962V12.7387C31.6718 12.3584 31.3636 12.0501 30.9833 12.0501C30.603 12.0501 30.2948 12.3584 30.2948 12.7387V15.8962L29.4045 15.006C29.1343 14.745 28.7049 14.7488 28.4393 15.0144C28.1737 15.28 28.17 15.7094 28.4309 15.9796L30.2948 17.8434V20.0274L29.4045 19.1371C29.1343 18.8762 28.7049 18.8799 28.4393 19.1455C28.1737 19.4111 28.17 19.8405 28.4309 20.1107L30.2948 21.9745V24.4202C27.9682 24.2694 26.8521 23.2146 26.8521 18.9354C26.8521 13.6296 29.8582 8.60752 30.9833 8.60752C32.1083 8.60752 35.1144 13.6296 35.1144 18.9354C35.1144 23.2146 33.9983 24.2694 31.6718 24.4202Z" fill="black"/>
</svg>
