<svg width="42" height="42" viewBox="0 0 42 42" fill="none" xmlns="http://www.w3.org/2000/svg">
<path d="M3.94521 38.3011H1.23288V36.2463H29.3014V35.0134H24.3649C26.2759 33.7193 27.5342 31.5311 27.5342 29.0545V25.1504H14.3836H13.1507H9.59885V26.3833H13.1507V27.6161H5.54795V28.849H13.1507V29.0545C13.1507 32.3403 10.4776 35.0134 7.19178 35.0134C3.906 35.0134 1.23288 32.3403 1.23288 29.0545V26.3833H8.36597V25.1504H0V29.0545C0 31.5311 1.25836 33.7193 3.16932 35.0134H0V39.5339H3.94521V41.9997H10.1096V39.5339H15.4932V38.3011H10.1096H3.94521ZM14.3836 26.3833H26.3014V27.6161H18.6986V28.849H26.3014V29.0545C26.3014 32.3403 23.6282 35.0134 20.3425 35.0134C17.0567 35.0134 14.3836 32.3403 14.3836 29.0545V26.3833ZM13.7671 31.9661C14.3178 33.2049 15.2083 34.2605 16.32 35.0134H11.2142C12.326 34.2606 13.2164 33.2049 13.7671 31.9661ZM8.87671 40.7668H5.17808V39.5339H8.87671V40.7668Z" fill="black"/>
<path d="M29.2192 27.6152H30.4521V28.8481H29.2192V27.6152Z" fill="black"/>
<path d="M42.0002 30.7067C42.0002 30.5143 41.99 30.3193 41.9699 30.1271L40.6115 17.1249L39.3854 17.253L39.6093 19.3973H17.6788L18.2353 14.0706C18.3342 13.1245 19.1355 12.411 20.0992 12.411H26.7678V11.1781H22.3468C22.6259 10.0015 23.6847 9.12329 24.9454 9.12329H32.3427C33.6034 9.12329 34.6622 10.0015 34.9413 11.1781H28.0007V12.411H37.189C38.1527 12.411 38.954 13.1245 39.0529 14.0706L39.2572 16.0268L40.4834 15.8987L40.279 13.9424C40.1714 12.9116 39.5656 12.0467 38.7126 11.5716V6.36986C38.7126 2.85748 35.855 0 32.3427 0H24.9454C21.4331 0 18.5756 2.85748 18.5756 6.36986V11.5717C17.7226 12.0468 17.1167 12.9117 17.0091 13.9425L16.6176 17.6899L11.5055 13.8904H5.55762L12.0567 23.8037L13.0878 23.1277L7.84008 15.1233H11.0976L16.4687 19.1153L16.021 23.4017L17.2471 23.5299L17.55 20.6301H39.7382L40.4681 27.6164H31.6852V28.8493H40.5969L40.7438 30.2554C40.7594 30.4051 40.7673 30.5569 40.7673 30.7067C40.7673 33.0815 38.8095 35.0137 36.4029 35.0137H30.5345V36.2466H40.7673V38.3014H38.055H31.8906H16.7262V39.5342H31.8906V42H38.055V39.5342H42.0002V35.0137H39.9179C41.1869 33.9972 42.0002 32.4445 42.0002 30.7067ZM30.0824 7.89041H27.2057V7.27397C27.2057 6.4809 27.851 5.83562 28.6441 5.83562C29.4371 5.83562 30.0824 6.4809 30.0824 7.27397V7.89041ZM19.8084 6.36986C19.8084 3.53737 22.1129 1.23288 24.9454 1.23288H32.3427C35.1753 1.23288 37.4797 3.53737 37.4797 6.36986V11.1915C37.3839 11.1827 37.2869 11.1781 37.189 11.1781H36.1976C35.9012 9.31726 34.2856 7.89041 32.3427 7.89041H31.3153V7.27397C31.3153 5.8011 30.117 4.60274 28.6441 4.60274C27.1711 4.60274 25.9728 5.8011 25.9728 7.27397V7.89041H24.9454C23.0025 7.89041 21.3869 9.31726 21.0905 11.1781H20.0992C20.0012 11.1781 19.9042 11.1827 19.8084 11.1915V6.36986ZM36.8221 40.7671H33.1235V39.5342H36.8221V40.7671Z" fill="black"/>
<path d="M3.08252 27.6152H4.3154V28.8481H3.08252V27.6152Z" fill="black"/>
<path d="M16.2329 27.6152H17.4658V28.8481H16.2329V27.6152Z" fill="black"/>
<path d="M33.9043 13.6445H35.1372V14.8774H33.9043V13.6445Z" fill="black"/>
<path d="M36.3701 13.6445H37.603V14.8774H36.3701V13.6445Z" fill="black"/>
</svg>
