<svg width="36" height="42" viewBox="0 0 36 42" fill="none" xmlns="http://www.w3.org/2000/svg">
<path d="M18.6254 26.2502H14.0316C13.9312 26.2501 13.8322 26.2271 13.7421 26.1828C13.6521 26.1385 13.5734 26.0741 13.5121 25.9946C13.4508 25.9152 13.4085 25.8227 13.3886 25.7243C13.3686 25.6259 13.3715 25.5243 13.397 25.4272L19.9595 0.489718C19.9876 0.382848 20.0421 0.284788 20.1182 0.204626C20.1942 0.124465 20.2892 0.0647988 20.3945 0.0311586C20.4997 -0.00248167 20.6117 -0.0090066 20.7202 0.0121887C20.8286 0.033384 20.9299 0.0816133 21.0148 0.152405L24.9523 3.43366C25.0488 3.51421 25.1202 3.62081 25.1579 3.74076C25.1956 3.8607 25.198 3.98895 25.1649 4.11025L19.2586 25.7665C19.2208 25.9054 19.1383 26.028 19.0238 26.1154C18.9094 26.2029 18.7694 26.2502 18.6254 26.2502ZM14.8847 24.9377H18.126L23.7894 4.17194L20.9675 1.82059L14.8847 24.9377Z" fill="black"/>
<path d="M17.9685 26.2503H13.3747C13.2307 26.2503 13.0907 26.2029 12.9762 26.1155C12.8618 26.0281 12.7793 25.9055 12.7414 25.7666L6.83516 4.11035C6.80206 3.98905 6.8045 3.8608 6.8422 3.74085C6.87989 3.62091 6.95125 3.51431 7.04778 3.43375L10.9853 0.152504C11.0702 0.0815674 11.1718 0.0332715 11.2804 0.0121084C11.389 -0.00905467 11.5013 -0.00239733 11.6066 0.0314611C11.712 0.0653196 11.8071 0.125279 11.8831 0.205762C11.9591 0.286245 12.0135 0.384637 12.0412 0.491785L16.6349 18.2105L15.3644 18.5387L11.0332 1.822L8.21263 4.17203L13.8761 24.9378H17.9685V26.2503Z" fill="black"/>
<path d="M16 2.62478C14.2492 2.60655 12.536 2.11493 11.042 1.20203L11.7704 0.110031C13.0505 0.874684 14.5091 1.2893 16 1.31228C17.4913 1.28917 18.9504 0.874336 20.2308 0.109375L20.9579 1.20203C19.4639 2.11493 17.7507 2.60655 16 2.62478Z" fill="black"/>
<path d="M16.0004 6.56328C14.771 6.58036 13.5522 6.33423 12.4258 5.84141L13.0125 4.66672C13.9574 5.0657 14.9748 5.26457 16.0004 5.25078C17.0271 5.26256 18.0451 5.06145 18.9903 4.66016L19.575 5.84141C18.4486 6.33423 17.2298 6.58036 16.0004 6.56328Z" fill="black"/>
<path d="M29.125 32.8125H30.4375V34.7812H29.125V32.8125Z" fill="black"/>
<path d="M29.125 9.84375H30.4375V28.875H29.125V9.84375Z" fill="black"/>
<path d="M30.4378 8.53186H29.1253V6.40954C29.1254 6.24951 29.0671 6.09495 28.9612 5.97493C28.8553 5.85492 28.7092 5.77773 28.5504 5.75789L24.4502 5.24536L24.6129 3.94336L28.7132 4.45589C29.1894 4.5154 29.6274 4.74677 29.945 5.10653C30.2626 5.46629 30.4378 5.92966 30.4378 6.40954V8.53186Z" fill="black"/>
<path d="M1.5625 25.5938H2.875V26.9062H1.5625V25.5938Z" fill="black"/>
<path d="M2.875 24.2819H1.5625V6.40955C1.56248 5.92966 1.73773 5.46629 2.05531 5.10653C2.3729 4.74677 2.81095 4.5154 3.28713 4.45589L7.38737 3.94336L7.55013 5.24536L3.44988 5.75789C3.29107 5.77773 3.145 5.85492 3.03913 5.97494C2.93325 6.09495 2.87489 6.24951 2.875 6.40955V24.2819Z" fill="black"/>
<path d="M29.7812 33.4688H22.5625V32.1563H29.7812V29.5313H23.2188V28.2188H29.7812C30.1293 28.2188 30.4632 28.357 30.7093 28.6032C30.9555 28.8493 31.0938 29.1832 31.0938 29.5313V32.1563C31.0938 32.5043 30.9555 32.8382 30.7093 33.0843C30.4632 33.3305 30.1293 33.4688 29.7812 33.4688Z" fill="black"/>
<path d="M19.9375 33.4688H2.21875C1.87065 33.4688 1.53681 33.3305 1.29067 33.0843C1.04453 32.8382 0.90625 32.5043 0.90625 32.1563V29.5313C0.90625 29.1832 1.04453 28.8493 1.29067 28.6032C1.53681 28.357 1.87065 28.2188 2.21875 28.2188H19.2812V29.5313H2.21875V32.1563H19.9375V33.4688Z" fill="black"/>
<path d="M21.9062 34.125H20.5938C20.0716 34.125 19.5708 33.9176 19.2016 33.5484C18.8324 33.1792 18.625 32.6784 18.625 32.1563V29.5313C18.625 29.0091 18.8324 28.5083 19.2016 28.1391C19.5708 27.7699 20.0716 27.5625 20.5938 27.5625H21.9062C22.4284 27.5625 22.9292 27.7699 23.2984 28.1391C23.6676 28.5083 23.875 29.0091 23.875 29.5313V32.1563C23.875 32.6784 23.6676 33.1792 23.2984 33.5484C22.9292 33.9176 22.4284 34.125 21.9062 34.125ZM20.5938 28.875C20.4197 28.875 20.2528 28.9441 20.1297 29.0672C20.0066 29.1903 19.9375 29.3572 19.9375 29.5313V32.1563C19.9375 32.3303 20.0066 32.4972 20.1297 32.6203C20.2528 32.7434 20.4197 32.8125 20.5938 32.8125H21.9062C22.0803 32.8125 22.2472 32.7434 22.3703 32.6203C22.4934 32.4972 22.5625 32.3303 22.5625 32.1563V29.5313C22.5625 29.3572 22.4934 29.1903 22.3703 29.0672C22.2472 28.9441 22.0803 28.875 21.9062 28.875H20.5938Z" fill="black"/>
<path d="M20.5936 42.0009C20.4745 42.0009 20.3577 41.9684 20.2557 41.9071L16.9744 39.9383C16.8407 39.8581 16.7399 39.7329 16.6901 39.5851C16.6403 39.4373 16.6448 39.2766 16.7027 39.1318L18.0152 35.8505L19.2345 36.3388L18.1294 39.1009L20.213 40.3478L22.5913 32.6172L23.846 33.0031L21.221 41.5343C21.1803 41.6691 21.0974 41.7872 20.9844 41.8712C20.8714 41.9553 20.7344 42.0007 20.5936 42.0009Z" fill="black"/>
<path d="M21.25 42.0019H20.5938V40.6894H21.1693L33.2948 37.6582L32.2317 36.1265L21.4036 38.703L21.1004 37.4259L32.3662 34.7465C32.4943 34.7159 32.6287 34.7245 32.7518 34.7714C32.875 34.8182 32.9812 34.901 33.0566 35.009L34.9158 37.6884C34.9763 37.7757 35.0147 37.8763 35.0278 37.9817C35.0408 38.087 35.0281 38.194 34.9908 38.2934C34.9534 38.3927 34.8925 38.4816 34.8132 38.5522C34.734 38.6229 34.6388 38.6733 34.5358 38.699L21.4108 41.9803C21.3583 41.9942 21.3043 42.0015 21.25 42.0019Z" fill="black"/>
<path d="M13.3747 42.0014H7.46844C7.33287 42.0015 7.20062 41.9595 7.08986 41.8814C6.9791 41.8032 6.89527 41.6926 6.84988 41.5649C6.8045 41.4372 6.79979 41.2985 6.8364 41.168C6.87301 41.0374 6.94914 40.9214 7.05434 40.8359L17.5543 32.3047L18.3825 33.3232L9.31644 40.6889H13.103L20.7857 33.0062L21.7137 33.9342L13.8387 41.8092C13.7156 41.9322 13.5487 42.0014 13.3747 42.0014Z" fill="black"/>
<path d="M8.78125 42H4.84375C3.97383 41.999 3.13983 41.6529 2.52471 41.0378C1.90958 40.4227 1.56354 39.5887 1.5625 38.7188V32.8125H2.875V38.7188C2.875 39.2409 3.08242 39.7417 3.45163 40.1109C3.82085 40.4801 4.3216 40.6875 4.84375 40.6875H8.78125V42Z" fill="black"/>
<path d="M13.375 40.6875H20.5938V42H13.375V40.6875Z" fill="black"/>
<path d="M27.1562 42H21.25V40.6875H27.1562C27.6784 40.6875 28.1792 40.4801 28.5484 40.1109C28.9176 39.7417 29.125 39.2409 29.125 38.7188H30.4375C30.4365 39.5887 30.0904 40.4227 29.4753 41.0378C28.8602 41.6529 28.0262 41.999 27.1562 42Z" fill="black"/>
<path d="M24.9323 29.3965L24.1303 28.357L27.2219 25.9708C27.512 25.7172 27.7092 25.374 27.7823 24.9957C27.8554 24.6174 27.8002 24.2255 27.6255 23.882L27.0251 22.7841L21.6851 28.714L20.71 27.8366L26.6681 21.2189C26.7382 21.1411 26.826 21.0812 26.924 21.0442C27.0221 21.0072 27.1276 20.9942 27.2317 21.0064C27.3357 21.0185 27.4354 21.0554 27.5223 21.114C27.6092 21.1725 27.6808 21.2511 27.7312 21.343L28.7877 23.2717C29.1015 23.884 29.1992 24.5843 29.0651 25.2591C28.931 25.9339 28.5729 26.5436 28.0488 26.9893L24.9323 29.3965Z" fill="black"/>
<path d="M21.1569 28.613L20.0308 27.9403L23.2431 22.5591C23.4923 22.06 23.8835 21.6458 24.3675 21.3684C24.8515 21.0911 25.4067 20.9631 25.9633 21.0005H27.1563V22.313H25.9633C25.6342 22.2748 25.3017 22.3435 25.0147 22.509C24.7277 22.6744 24.5017 22.9279 24.3699 23.2318L21.1569 28.613Z" fill="black"/>
<path d="M18.625 29.5312H13.375C13.201 29.5312 13.034 29.4621 12.911 29.339C12.7879 29.216 12.7188 29.049 12.7188 28.875V25.5938H14.0312V28.2188H17.9688V25.5938H19.2812V28.875C19.2812 29.049 19.2121 29.216 19.089 29.339C18.966 29.4621 18.799 29.5312 18.625 29.5312Z" fill="black"/>
</svg>
