<svg width="48" height="49" viewBox="0 0 48 49" fill="none" xmlns="http://www.w3.org/2000/svg">
<path fill-rule="evenodd" clip-rule="evenodd" d="M30.2728 10.6738H17.7268C13.4663 10.6738 10 14.1638 10 18.4534V31.0848C10 35.3745 13.4663 38.8643 17.7268 38.8643H30.2728C34.5337 38.8643 38 35.3743 38 31.0848V18.4534C38.0002 14.1638 34.5337 10.6738 30.2728 10.6738ZM35.5159 31.0847C35.5159 33.9953 33.1639 36.3631 30.273 36.3631H17.7268C14.8361 36.3633 12.4843 33.9953 12.4843 31.0847V18.4534C12.4843 15.543 14.8361 13.175 17.7268 13.175H30.2728C33.1637 13.175 35.5157 15.543 35.5157 18.4534V31.0847H35.5159ZM16.8293 24.7692C16.8293 20.7882 20.046 17.5495 24 17.5495C27.954 17.5495 31.1707 20.7882 31.1707 24.7692C31.1707 28.75 27.954 31.9886 24 31.9886C20.046 31.9886 16.8293 28.75 16.8293 24.7692ZM24 29.5025C21.4076 29.5025 19.2984 27.3791 19.2984 24.769C19.2984 22.1588 21.4075 20.0353 24 20.0353C26.5926 20.0353 28.7016 22.1588 28.7016 24.769C28.7016 27.3791 26.5924 29.5025 24 29.5025ZM30.3062 15.99C30.623 15.6697 31.0636 15.4869 31.5122 15.4869C31.9623 15.4869 32.4031 15.6697 32.7197 15.99C33.0379 16.3088 33.2195 16.7526 33.2195 17.2058C33.2195 17.6574 33.0379 18.1012 32.7197 18.4215C32.4015 18.7403 31.9623 18.9247 31.5122 18.9247C31.0636 18.9247 30.6228 18.7403 30.3062 18.4215C29.988 18.1012 29.8049 17.6575 29.8049 17.2058C29.8049 16.7526 29.9879 16.3088 30.3062 15.99Z" fill="white"/>
</svg>
