<svg width="42" height="42" viewBox="0 0 42 42" fill="none" xmlns="http://www.w3.org/2000/svg">
<g clip-path="url(#clip0)">
<path d="M25.4451 24.2926C25.3794 24.2059 25.3178 24.1156 25.2499 24.0303L25.18 23.9407C22.4208 20.4941 21.918 15.7576 23.8921 11.8086L23.9557 11.6827C25.6926 8.20794 27.0445 4.55377 27.9874 0.785309L26.6302 0.445312C25.7124 4.11531 24.3961 7.67399 22.7049 11.0579L22.6412 11.1839C20.4232 15.6217 20.9891 20.9444 24.0907 24.8166L24.1607 24.9061C24.4771 25.3024 24.7668 25.719 25.0282 26.1535L26.0307 27.829C26.4545 28.5356 26.8002 29.2863 27.0619 30.0676C27.2018 30.4874 27.3284 30.9134 27.4459 31.3381C22.4677 31.7942 16.1855 32.0964 8.76994 32.0964C5.80512 32.0964 2.87108 32.0447 0.0503698 31.9432L0 33.3424C2.8382 33.4445 5.78833 33.4963 8.76994 33.4963C9.06376 33.4956 10.7924 33.4956 13.3172 33.4396V41.191C13.3172 41.5773 13.6304 41.8905 14.0168 41.8905H16.8151C17.2015 41.8905 17.5147 41.5773 17.5147 41.191V33.3193C20.7328 33.2025 24.451 33.0087 28.0084 32.6897V41.191C28.0084 41.5773 28.3216 41.8905 28.708 41.8905H31.5063C31.8926 41.8905 32.2059 41.5773 32.2059 41.191V32.2279C35.5233 31.7928 38.3993 31.2087 40.1608 30.423L39.527 33.171C38.8843 35.9406 37.6304 38.5314 35.857 40.7537L36.9497 41.6282C38.8535 39.2416 40.2 36.4596 40.8905 33.4858L41.9398 28.9385C41.9779 28.8291 41.9982 28.7143 42 28.5985C42 27.8458 41.9951 25.563 25.4451 24.2926ZM16.1155 40.4914H14.7164V33.4956H16.1155V40.4914ZM30.8067 40.4914H29.4076V32.796H30.8067V40.4914ZM40.5826 28.6111C40.0859 29.4464 35.9731 30.4825 28.8591 31.2073C28.715 30.6784 28.5632 30.1509 28.3897 29.6283C28.096 28.7491 27.7073 27.9046 27.2305 27.1098L26.4308 25.7771C37.1092 26.6698 40.2259 28.0626 40.5826 28.5985V28.6111Z" fill="black"/>
<path d="M5.62158 24.4023V25.8015C6.00793 25.8015 6.32116 26.1147 6.32116 26.5011C6.32116 26.8874 6.00793 27.2007 5.62158 27.2007V28.5998C6.7807 28.5998 7.72032 27.6602 7.72032 26.5011C7.72032 25.342 6.7807 24.4023 5.62158 24.4023Z" fill="black"/>
<path d="M5.62156 34.8965C4.0761 34.8965 2.82324 36.1493 2.82324 37.6948C2.82324 39.2403 4.0761 40.4931 5.62156 40.4931C7.16702 40.4931 8.41988 39.2403 8.41988 37.6948C8.41988 36.1493 7.16702 34.8965 5.62156 34.8965ZM5.62156 39.094C4.84879 39.094 4.2224 38.4676 4.2224 37.6948C4.2224 36.922 4.84879 36.2956 5.62156 36.2956C6.39434 36.2956 7.02072 36.922 7.02072 37.6948C7.02072 38.4676 6.39434 39.094 5.62156 39.094Z" fill="black"/>
<path d="M38.5022 16.0078H37.103V17.407H38.5022V16.0078Z" fill="black"/>
<path d="M35.7038 16.0078H34.3047V17.407H35.7038V16.0078Z" fill="black"/>
<path d="M32.9055 16.0078H31.5063V17.407H32.9055V16.0078Z" fill="black"/>
<path d="M30.1072 16.0078H28.708V17.407H30.1072V16.0078Z" fill="black"/>
<path d="M29.9024 13.7021L28.9132 12.7129L25.4153 16.2108C25.1422 16.484 25.1422 16.9268 25.4153 17.2L28.9132 20.6979L29.9024 19.7087L26.8991 16.7054L29.9024 13.7021Z" fill="black"/>
<path d="M21.8519 0.149251C20.3911 1.78058 18.3052 2.71348 16.1153 2.71461C13.9069 2.714 11.8051 1.76528 10.3438 0.109375L9.29443 1.03562C11.0215 2.99226 13.5055 4.11325 16.1153 4.11377C18.7027 4.11194 21.1673 3.00975 22.8936 1.08249L21.8519 0.149251Z" fill="black"/>
</g>
<defs>
<clipPath id="clip0">
<rect width="42" height="42" fill="white"/>
</clipPath>
</defs>
</svg>
